<?xml version="1.0" standalone="no"?><!DOCTYPE svg PUBLIC "-//W3C//DTD SVG 1.1//EN" "http://www.w3.org/Graphics/SVG/1.1/DTD/svg11.dtd"><svg class="icon" width="200px" height="200.00px" viewBox="0 0 1024 1024" version="1.1" xmlns="http://www.w3.org/2000/svg"><path d="M962.4 312 736 538.4c-16 16-40.8 16-56.8 0L453.6 312c-16-16-16-40.8 0-56.8L680 29.6c16-16 40.8-16 56.8 0L962.4 256C978.4 271.2 978.4 296.8 962.4 312zM380 972l-320 0c-22.4 0-40-17.6-40-40l0-320c0-22.4 17.6-40 40-40l320 0c22.4 0 40 17.6 40 40l0 320C420 954.4 402.4 972 380 972zM380 492l-320 0c-22.4 0-40-17.6-40-40l0-320c0-22.4 17.6-40 40-40l320 0c22.4 0 40 17.6 40 40l0 320C420 474.4 402.4 492 380 492zM540 572l320 0c22.4 0 40 17.6 40 40l0 320c0 22.4-17.6 40-40 40l-320 0c-22.4 0-40-17.6-40-40l0-320C500 589.6 517.6 572 540 572z" /></svg>