<?xml version="1.0" standalone="no"?><!DOCTYPE svg PUBLIC "-//W3C//DTD SVG 1.1//EN" "http://www.w3.org/Graphics/SVG/1.1/DTD/svg11.dtd"><svg class="icon" width="200px" height="200.00px" viewBox="0 0 1024 1024" version="1.1" xmlns="http://www.w3.org/2000/svg"><path d="M934.140924 580.206428l-149.893892 0L784.247033 430.040337c0-14.993482-12.218276-27.191292-27.281343-27.191292-15.152095 0-27.28032 12.30935-27.28032 27.507494l0 149.850913L579.809897 580.207451c-15.21861 0-27.483958 12.218276-27.483958 27.303856 0 15.173584 12.174274 27.28339 27.191292 27.28339l150.166091 0 0 149.869333c0 15.243169 12.218276 27.484981 27.28032 27.484981 15.199167 0 27.281343-12.175297 27.281343-27.170826L784.244986 634.793674l150.211117 0c14.971993 0 27.14729-12.221346 27.14729-27.28339C961.604416 592.3367 949.316555 580.206428 934.140924 580.206428z"  /><path d="M78.934259 252.775051l317.092915 0 317.104171 0c8.975419 0 16.551978-9.155521 16.551978-20.451798 0-11.386328-7.53051-20.472264-16.821107-20.472264L79.226924 211.850989c-9.334599 0-16.830317 9.152451-16.830317 20.472264C62.395584 243.686045 69.802274 252.775051 78.934259 252.775051z"  /><path d="M79.216691 525.641695l227.840148 0 227.862661 0c9.242502 0 16.821107-9.153474 16.821107-20.47431 0-11.362792-7.529487-20.449751-16.842597-20.449751L79.238181 484.717633c-9.358135 0-16.842597 9.153474-16.842597 20.449751C62.395584 516.553713 69.926094 525.641695 79.216691 525.641695z"  /><path d="M585.063551 757.584278 79.125617 757.584278c-9.108448 0-16.730033 9.155521-16.730033 20.451798 0 11.386328 7.462972 20.472264 16.661472 20.472264L332.083839 798.508339l253.025761 0c9.199523 0 16.685008-9.153474 16.685008-20.472264C601.794607 766.67226 594.309122 757.584278 585.063551 757.584278z"  /></svg>